<?xml version="1.0" encoding="UTF-8" standalone="no"?>
<!-- Created with Inkscape (http://www.inkscape.org/) -->

<svg
   width="1080"
   height="1080"
   viewBox="0 0 285.74999 285.75"
   version="1.1"
   id="svg1"
   xml:space="preserve"
   xmlns="http://www.w3.org/2000/svg"
   xmlns:svg="http://www.w3.org/2000/svg"><defs
     id="defs1"><clipPath
       clipPathUnits="userSpaceOnUse"
       id="clipPath10"><path
         style="fill:none;fill-opacity:1;stroke:#000000;stroke-width:0.264583"
         d="m 58.37001,120.29728 c -2.010881,3.9861 -1.946011,7.3335 -2.332721,10.81985 -4.920419,17.09438 -28.380859,5.98876 -18.711391,-13.59926 0.68481,-1.14104 7.600302,-14.04609 15.187491,-10.32354 -1.740951,8.86547 4.097991,12.22373 5.856621,13.10295 z"
         id="path10" /></clipPath><clipPath
       clipPathUnits="userSpaceOnUse"
       id="clipPath11"><path
         style="fill:none;fill-opacity:1;stroke:#000000;stroke-width:0.264583"
         d="m 58.37001,120.29728 c -2.010881,3.9861 -1.946011,7.3335 -2.332721,10.81985 -4.920419,17.09438 -28.380859,5.98876 -18.711391,-13.59926 0.68481,-1.14104 7.600302,-14.04609 15.187491,-10.32354 -1.740951,8.86547 4.097991,12.22373 5.856621,13.10295 z"
         id="path11" /></clipPath><clipPath
       clipPathUnits="userSpaceOnUse"
       id="clipPath12"><path
         style="fill:none;fill-opacity:1;stroke:#000000;stroke-width:0.264583"
         d="m 58.37001,120.29728 c -2.010881,3.9861 -1.946011,7.3335 -2.332721,10.81985 -4.920419,17.09438 -28.380859,5.98876 -18.711391,-13.59926 0.68481,-1.14104 7.600302,-14.04609 15.187491,-10.32354 -1.740951,8.86547 4.097991,12.22373 5.856621,13.10295 z"
         id="path12" /></clipPath><clipPath
       clipPathUnits="userSpaceOnUse"
       id="clipPath13"><path
         style="fill:none;fill-opacity:1;stroke:#000000;stroke-width:0.264583"
         d="m 58.37001,120.29728 c -2.010881,3.9861 -1.946011,7.3335 -2.332721,10.81985 -4.920419,17.09438 -28.380859,5.98876 -18.711391,-13.59926 0.68481,-1.14104 7.600302,-14.04609 15.187491,-10.32354 -1.740951,8.86547 4.097991,12.22373 5.856621,13.10295 z"
         id="path13" /></clipPath></defs><g
     id="layer1"><g
       id="g4"
       transform="matrix(1.0424084,0,0,1.0375344,-38.138063,-15.319231)" /><g
       id="g16"
       transform="translate(71.966666,10.451042)" /><g
       id="g19"><g
         id="g17"
         transform="matrix(3.9194143,0,0,3.9194143,-337.73752,-295.47281)"><g
           id="g18"
           transform="translate(-3.8364583,-19.446875)"><path
             style="fill:#192232;fill-opacity:1;stroke:#192232;stroke-width:0.264583;stroke-opacity:1"
             d="m 98.778605,138.02083 c -0.68926,11.11073 4.875485,16.55866 7.745805,18.89335 15.73899,8.91472 32.64692,4.98845 43.51826,-5.61526 -2.33685,-7.26397 -11.18316,-21.96843 -25.97058,-24.14562 1.20752,-7.60885 8.50863,-7.03946 14.4593,-8.2825 13.58812,-1.97136 19.83692,-0.0931 23.02256,2.80762 -0.0537,-4.86161 -2.01808,-9.21196 -4.03384,-13.55034 -3.16983,-4.06023 -20.1039,-6.34574 -34.57107,-1.75124 l 2.2461,-4.21144 c -1.75477,0.44516 -3.50953,1.07564 -5.2643,1.89515 -9.85798,-3.2727 -13.10225,2.79586 -19.02169,4.5624 -3.267465,0.87718 -5.201715,2.16458 -6.036415,3.7903 l 2.94802,0.14038 6.176785,-1.40381 c -6.002545,1.91654 -10.319785,4.16175 -11.370907,6.60645 l 3.649922,-0.42967 c 0.96216,-0.44059 1.76117,-0.66365 2.52687,-0.84229 -4.35858,2.62144 -6.220396,5.30982 -7.01908,8.17546 l 2.52687,-0.0333 c 1.25355,-1.25827 1.88803,-2.77796 3.22877,-2.94801 -2.57772,4.39065 -3.75198,8.43562 -3.08839,11.56943 l 2.45169,-3.29471 c -0.25121,2.85252 -0.5807,5.95704 -0.0652,8.04286 z"
             id="path1" /><g
             id="g13"
             transform="translate(-35.565735,-17.732199)"><path
               style="fill:#fefefe;fill-opacity:1;stroke:#000000;stroke-width:0.264583"
               d="m 159.60498,139.45854 c -2.01088,3.9861 -1.94601,7.3335 -2.33272,10.81985 -4.92042,17.09438 -28.38086,5.98876 -18.71139,-13.59926 0.68481,-1.14104 7.6003,-14.04609 15.18749,-10.32354 -1.74095,8.86547 4.09799,12.22373 5.85662,13.10295 z"
               id="path5-2-6" /><path
               style="fill:#fdb47c;fill-opacity:1;stroke:#fdb47c;stroke-width:0.280638;stroke-opacity:1"
               d="m 52.896497,106.28825 c -1.001024,3.3203 -0.555405,5.704 0.205303,7.88367 -1.402947,2.44962 -8.535511,3.59459 -9.341022,-1.99791 -0.466102,-2.67023 1.328289,-8.28339 9.135719,-5.88576 z"
               id="path4-1"
               clip-path="url(#clipPath13)"
               transform="matrix(0.97442743,0,0,0.9873585,102.46734,20.622258)" /><ellipse
               style="fill:#192232;fill-opacity:1;stroke:#192232;stroke-width:0.322418;stroke-opacity:1"
               id="path2-2"
               cx="48.17841"
               cy="111.22772"
               rx="2.4855676"
               ry="2.5254414"
               clip-path="url(#clipPath12)"
               transform="translate(101.15509,19.325288)" /><ellipse
               style="fill:#fefefe;fill-opacity:1;stroke:#fefefe;stroke-width:0.275158;stroke-opacity:1"
               id="path3-9"
               cx="47.94561"
               cy="110.59109"
               rx="0.62084615"
               ry="0.64369088"
               clip-path="url(#clipPath11)"
               transform="translate(101.15509,19.325288)" /><path
               style="fill:#59d3d3;fill-opacity:1;stroke:#59d3d3;stroke-width:0.264583;stroke-opacity:1"
               d="m 41.487969,110.61004 c -24.569492,26.57406 6.45814,38.52103 12.07281,22.7418 -5.09483,5.0006 -23.80615,-0.98522 -12.07281,-22.7418 z"
               id="path6-7"
               clip-path="url(#clipPath10)"
               transform="matrix(0.98936796,0,0,0.99032844,101.72588,20.394191)" /></g><path
             style="fill:#344354;fill-opacity:1;stroke:#344354;stroke-width:0.264583;stroke-opacity:1"
             d="m 150.4805,104.89626 c 2.9849,0.54982 5.68371,1.72041 6.7898,2.98442 l 0.76067,1.68671 c -2.49758,-2.60982 -5.91743,-4.52095 -12.50156,-4.03489 z"
             id="path18" /><path
             style="fill:#fdb47c;fill-opacity:1;stroke:#fdb47c;stroke-width:0.266946;stroke-opacity:1"
             d="m 123.43497,114.8887 c 2.31636,-0.78381 4.59974,-1.33238 6.8585,-1.71023 5.32815,-0.8913 10.51944,-0.83261 15.68415,-0.67049 -3.38109,-3.63876 -1.40028,-7.93103 5.16253,-7.47912 -7.05435,-1.70373 -17.56921,-2.01886 -27.82045,1.23096 -1.53673,4.35053 -0.61249,7.12203 0.11527,8.62888 z"
             id="path14" /><path
             style="fill:#f99b63;fill-opacity:1;stroke:#f99b63;stroke-width:0.264583;stroke-opacity:1"
             d="m 123.9576,116.00007 c 1.10775,1.41292 2.40908,2.3903 3.86953,3.00964 14.55085,-3.73828 21.07904,-3.10868 27.91354,-2.64584 -1.12902,-0.8077 -11.3107,-5.12142 -31.78307,-0.3638 z"
             id="path15" /><path
             style="fill:#f99b63;fill-opacity:1;stroke:#f99b63;stroke-width:0.264583;stroke-opacity:1"
             d="m 122.80005,111.13835 7.97258,1.98438 c -2.13463,0.29864 -4.70097,0.77451 -7.31113,1.73917 -0.55497,-1.20899 -0.7229,-2.4265 -0.66145,-3.72355 z"
             id="path16" /><path
             style="fill:#344354;fill-opacity:1;stroke:#344354;stroke-width:0.264583;stroke-opacity:1"
             d="m 133.88704,133.77409 c 10.0003,5.68667 11.59371,12.93747 11.9269,20.97732 0.8829,-0.61911 1.48219,-1.14368 2.1983,-1.70719 -0.21059,-11.15616 -7.9436,-17.33824 -12.72203,-21.16441 z"
             id="path17" /></g></g></g></g></svg>
